<?xml version="1.0" encoding="UTF-8" standalone="no"?><svg xmlns="http://www.w3.org/2000/svg" xmlns:xlink="http://www.w3.org/1999/xlink" contentScriptType="application/ecmascript" contentStyleType="text/css" height="2173px" preserveAspectRatio="none" style="width:650px;height:2173px;" version="1.1" viewBox="0 0 650 2173" width="650px" zoomAndPan="magnify"><defs><filter height="300%" id="f1n3pl71gi63nl" width="300%" x="-1" y="-1"><feGaussianBlur result="blurOut" stdDeviation="2.0"/><feColorMatrix in="blurOut" result="blurOut2" type="matrix" values="0 0 0 0 0 0 0 0 0 0 0 0 0 0 0 0 0 0 .4 0"/><feOffset dx="4.0" dy="4.0" in="blurOut2" result="blurOut3"/><feBlend in="SourceGraphic" in2="blurOut3" mode="normal"/></filter></defs><g><text fill="#000000" font-family="sans-serif" font-size="18" lengthAdjust="spacingAndGlyphs" textLength="36" x="59.5" y="29.4531">产品</text><line style="stroke: #000000; stroke-width: 2.0;" x1="10" x2="10" y1="12.7451" y2="2161.7451"/><ellipse cx="78" cy="43.6982" fill="#000000" filter="url(#f1n3pl71gi63nl)" rx="10" ry="10" style="stroke: none; stroke-width: 1.0;"/><rect fill="#FFFFFF" filter="url(#f1n3pl71gi63nl)" height="228.2031" style="stroke: #000000; stroke-width: 2.0;" width="112" x="22" y="88.6982"/><path d="M88,89.6982 L88,97.9951 L78,107.9951 L22,107.9951 " fill="none" style="stroke: #000000; stroke-width: 2.0;"/><text fill="#000000" font-family="sans-serif" font-size="14" lengthAdjust="spacingAndGlyphs" textLength="56" x="25" y="102.6934">收集需求</text><rect fill="#FEFECE" filter="url(#f1n3pl71gi63nl)" height="33.9688" rx="12.5" ry="12.5" style="stroke: #A80036; stroke-width: 1.5;" width="68" x="44" y="124.9951"/><text fill="#000000" font-family="sans-serif" font-size="12" lengthAdjust="spacingAndGlyphs" textLength="48" x="54" y="146.1338">市场调研</text><rect fill="#FEFECE" filter="url(#f1n3pl71gi63nl)" height="33.9688" rx="12.5" ry="12.5" style="stroke: #A80036; stroke-width: 1.5;" width="68" x="44" y="193.9639"/><text fill="#000000" font-family="sans-serif" font-size="12" lengthAdjust="spacingAndGlyphs" textLength="48" x="54" y="215.1025">产品立项</text><rect fill="#FF0000" filter="url(#f1n3pl71gi63nl)" height="33.9688" rx="12.5" ry="12.5" style="stroke: #A80036; stroke-width: 1.5;" width="92" x="32" y="262.9326"/><text fill="#000000" font-family="sans-serif" font-size="12" lengthAdjust="spacingAndGlyphs" textLength="72" x="42" y="284.0713">撰写需求文档</text><rect fill="#FEFECE" filter="url(#f1n3pl71gi63nl)" height="33.9688" rx="12.5" ry="12.5" style="stroke: #A80036; stroke-width: 1.5;" width="68" x="44" y="420.8701"/><text fill="#000000" font-family="sans-serif" font-size="12" lengthAdjust="spacingAndGlyphs" textLength="48" x="54" y="442.0088">需求定稿</text><rect fill="#FF0000" filter="url(#f1n3pl71gi63nl)" height="33.9688" rx="12.5" ry="12.5" style="stroke: #A80036; stroke-width: 1.5;" width="56" x="50" y="489.8389"/><text fill="#000000" font-family="sans-serif" font-size="12" lengthAdjust="spacingAndGlyphs" textLength="36" x="60" y="510.9775">出原型</text><rect fill="#FEFECE" filter="url(#f1n3pl71gi63nl)" height="33.9688" rx="12.5" ry="12.5" style="stroke: #A80036; stroke-width: 1.5;" width="68" x="44" y="834.6826"/><text fill="#000000" font-family="sans-serif" font-size="12" lengthAdjust="spacingAndGlyphs" textLength="48" x="54" y="855.8213">初步排期</text><rect fill="#FEFECE" filter="url(#f1n3pl71gi63nl)" height="33.9688" rx="12.5" ry="12.5" style="stroke: #A80036; stroke-width: 1.5;" width="116" x="20" y="972.6201"/><text fill="#000000" font-family="sans-serif" font-size="12" lengthAdjust="spacingAndGlyphs" textLength="96" x="30" y="993.7588">详细迭代、里程碑</text><rect fill="#FFEEDD" height="2149" style="stroke: #FFEEDD; stroke-width: 1.0;" width="137" x="145" y="12.7451"/><text fill="#000000" font-family="sans-serif" font-size="18" lengthAdjust="spacingAndGlyphs" textLength="36" x="195.5" y="29.4531">研发</text><line style="stroke: #000000; stroke-width: 2.0;" x1="145" x2="145" y1="12.7451" y2="2161.7451"/><rect fill="#FEFECE" filter="url(#f1n3pl71gi63nl)" height="33.9688" rx="12.5" ry="12.5" style="stroke: #A80036; stroke-width: 1.5;" width="68" x="180" y="351.9014"/><text fill="#000000" font-family="sans-serif" font-size="12" lengthAdjust="spacingAndGlyphs" textLength="48" x="190" y="373.04">需求评审</text><rect fill="#FEFECE" filter="url(#f1n3pl71gi63nl)" height="33.9688" rx="12.5" ry="12.5" style="stroke: #A80036; stroke-width: 1.5;" width="68" x="180" y="558.8076"/><text fill="#000000" font-family="sans-serif" font-size="12" lengthAdjust="spacingAndGlyphs" textLength="48" x="190" y="579.9463">原型评审</text><rect fill="#FEFECE" filter="url(#f1n3pl71gi63nl)" height="33.9688" rx="12.5" ry="12.5" style="stroke: #A80036; stroke-width: 1.5;" width="81" x="173.5" y="696.7451"/><text fill="#000000" font-family="sans-serif" font-size="12" lengthAdjust="spacingAndGlyphs" textLength="61" x="183.5" y="717.8838">UI/UE 评审</text><rect fill="#FF0000" filter="url(#f1n3pl71gi63nl)" height="33.9688" rx="12.5" ry="12.5" style="stroke: #A80036; stroke-width: 1.5;" width="68" x="180" y="765.7139"/><text fill="#000000" font-family="sans-serif" font-size="12" lengthAdjust="spacingAndGlyphs" textLength="48" x="190" y="786.8525">概要设计</text><rect fill="#FF0000" filter="url(#f1n3pl71gi63nl)" height="33.9688" rx="12.5" ry="12.5" style="stroke: #A80036; stroke-width: 1.5;" width="68" x="180" y="903.6514"/><text fill="#000000" font-family="sans-serif" font-size="12" lengthAdjust="spacingAndGlyphs" textLength="48" x="190" y="924.79">详细设计</text><rect fill="#FFFFFF" filter="url(#f1n3pl71gi63nl)" height="297.1719" style="stroke: #000000; stroke-width: 2.0;" width="118" x="155" y="1113.5889"/><path d="M214,1114.5889 L214,1122.8857 L204,1132.8857 L155,1132.8857 " fill="none" style="stroke: #000000; stroke-width: 2.0;"/><text fill="#000000" font-family="sans-serif" font-size="14" lengthAdjust="spacingAndGlyphs" textLength="49" x="158" y="1127.584">Coding</text><rect fill="#FF0000" filter="url(#f1n3pl71gi63nl)" height="33.9688" rx="12.5" ry="12.5" style="stroke: #A80036; stroke-width: 1.5;" width="68" x="180" y="1149.8857"/><text fill="#000000" font-family="sans-serif" font-size="12" lengthAdjust="spacingAndGlyphs" textLength="48" x="190" y="1171.0244">编码实现</text><rect fill="#FEFECE" filter="url(#f1n3pl71gi63nl)" height="33.9688" rx="12.5" ry="12.5" style="stroke: #A80036; stroke-width: 1.5;" width="68" x="180" y="1218.8545"/><text fill="#000000" font-family="sans-serif" font-size="12" lengthAdjust="spacingAndGlyphs" textLength="48" x="190" y="1239.9932">单元测试</text><rect fill="#FEFECE" filter="url(#f1n3pl71gi63nl)" height="33.9688" rx="12.5" ry="12.5" style="stroke: #A80036; stroke-width: 1.5;" width="80" x="174" y="1287.8232"/><text fill="#000000" font-family="sans-serif" font-size="12" lengthAdjust="spacingAndGlyphs" textLength="60" x="184" y="1308.9619">代码覆盖率</text><rect fill="#FEFECE" filter="url(#f1n3pl71gi63nl)" height="33.9688" rx="12.5" ry="12.5" style="stroke: #A80036; stroke-width: 1.5;" width="98" x="165" y="1356.792"/><text fill="#000000" font-family="sans-serif" font-size="12" lengthAdjust="spacingAndGlyphs" textLength="78" x="175" y="1377.9307">Code Review</text><polygon fill="#FEFECE" filter="url(#f1n3pl71gi63nl)" points="214,1041.5889,226,1053.5889,214,1065.5889,202,1053.5889,214,1041.5889" style="stroke: #A80036; stroke-width: 1.5;"/><rect fill="#FEFECE" filter="url(#f1n3pl71gi63nl)" height="33.9688" rx="12.5" ry="12.5" style="stroke: #A80036; stroke-width: 1.5;" width="68" x="180" y="1711.9951"/><text fill="#000000" font-family="sans-serif" font-size="12" lengthAdjust="spacingAndGlyphs" textLength="48" x="190" y="1733.1338">部署项目</text><text fill="#000000" font-family="sans-serif" font-size="18" lengthAdjust="spacingAndGlyphs" textLength="36" x="316" y="29.4531">设计</text><line style="stroke: #000000; stroke-width: 2.0;" x1="282" x2="282" y1="12.7451" y2="2161.7451"/><rect fill="#FF0000" filter="url(#f1n3pl71gi63nl)" height="33.9688" rx="12.5" ry="12.5" style="stroke: #A80036; stroke-width: 1.5;" width="85" x="292" y="627.7764"/><text fill="#000000" font-family="sans-serif" font-size="12" lengthAdjust="spacingAndGlyphs" textLength="65" x="302" y="648.915">出 UE/UI 图</text><rect fill="#FFEEDD" height="2149" style="stroke: #FFEEDD; stroke-width: 1.0;" width="141" x="386" y="12.7451"/><text fill="#000000" font-family="sans-serif" font-size="18" lengthAdjust="spacingAndGlyphs" textLength="36" x="438.5" y="29.4531">测试</text><line style="stroke: #000000; stroke-width: 2.0;" x1="386" x2="386" y1="12.7451" y2="2161.7451"/><rect fill="#FFFFFF" filter="url(#f1n3pl71gi63nl)" height="159.2344" style="stroke: #000000; stroke-width: 2.0;" width="100" x="396" y="1445.7607"/><path d="M458,1446.7607 L458,1455.0576 L448,1465.0576 L396,1465.0576 " fill="none" style="stroke: #000000; stroke-width: 2.0;"/><text fill="#000000" font-family="sans-serif" font-size="14" lengthAdjust="spacingAndGlyphs" textLength="52" x="399" y="1459.7559">Testing</text><rect fill="#FF0000" filter="url(#f1n3pl71gi63nl)" height="33.9688" rx="12.5" ry="12.5" style="stroke: #A80036; stroke-width: 1.5;" width="68" x="412" y="1482.0576"/><text fill="#000000" font-family="sans-serif" font-size="12" lengthAdjust="spacingAndGlyphs" textLength="48" x="422" y="1503.1963">功能测试</text><rect fill="#FEFECE" filter="url(#f1n3pl71gi63nl)" height="33.9688" rx="12.5" ry="12.5" style="stroke: #A80036; stroke-width: 1.5;" width="80" x="406" y="1551.0264"/><text fill="#000000" font-family="sans-serif" font-size="12" lengthAdjust="spacingAndGlyphs" textLength="60" x="416" y="1572.165">自动化测试</text><polygon fill="#FEFECE" filter="url(#f1n3pl71gi63nl)" points="418.5,1652.9951,473.5,1652.9951,485.5,1664.9951,473.5,1676.9951,418.5,1676.9951,406.5,1664.9951,418.5,1652.9951" style="stroke: #A80036; stroke-width: 1.5;"/><text fill="#000000" font-family="sans-serif" font-size="11" lengthAdjust="spacingAndGlyphs" textLength="55" x="418.5" y="1668.8032">测试不通过</text><rect fill="#FEFECE" filter="url(#f1n3pl71gi63nl)" height="33.9688" rx="12.5" ry="12.5" style="stroke: #A80036; stroke-width: 1.5;" width="92" x="400" y="1780.9639"/><text fill="#000000" font-family="sans-serif" font-size="12" lengthAdjust="spacingAndGlyphs" textLength="72" x="410" y="1802.1025">全部功能测试</text><rect fill="#FEFECE" filter="url(#f1n3pl71gi63nl)" height="33.9688" rx="12.5" ry="12.5" style="stroke: #A80036; stroke-width: 1.5;" width="68" x="412" y="1849.9326"/><text fill="#000000" font-family="sans-serif" font-size="12" lengthAdjust="spacingAndGlyphs" textLength="48" x="422" y="1871.0713">压力测试</text><text fill="#000000" font-family="sans-serif" font-size="18" lengthAdjust="spacingAndGlyphs" textLength="36" x="564.5" y="29.4531">上线</text><line style="stroke: #000000; stroke-width: 2.0;" x1="527" x2="527" y1="12.7451" y2="2161.7451"/><line style="stroke: #A80036; stroke-width: 1.5;" x1="553" x2="613" y1="1918.9014" y2="1918.9014"/><rect fill="#FEFECE" filter="url(#f1n3pl71gi63nl)" height="75.875" rx="12.5" ry="12.5" style="stroke: #A80036; stroke-width: 1.5;" width="32" x="537" y="1940.4014"/><text fill="#000000" font-family="sans-serif" font-size="12" lengthAdjust="spacingAndGlyphs" textLength="12" x="547" y="1961.54">负</text><text fill="#000000" font-family="sans-serif" font-size="12" lengthAdjust="spacingAndGlyphs" textLength="12" x="547" y="1975.5088">载</text><text fill="#000000" font-family="sans-serif" font-size="12" lengthAdjust="spacingAndGlyphs" textLength="12" x="547" y="1989.4775">均</text><text fill="#000000" font-family="sans-serif" font-size="12" lengthAdjust="spacingAndGlyphs" textLength="12" x="547" y="2003.4463">衡</text><rect fill="#FEFECE" filter="url(#f1n3pl71gi63nl)" height="75.875" rx="12.5" ry="12.5" style="stroke: #A80036; stroke-width: 1.5;" width="32" x="597" y="1940.4014"/><text fill="#000000" font-family="sans-serif" font-size="12" lengthAdjust="spacingAndGlyphs" textLength="12" x="607" y="1961.54">灾</text><text fill="#000000" font-family="sans-serif" font-size="12" lengthAdjust="spacingAndGlyphs" textLength="12" x="607" y="1975.5088">难</text><text fill="#000000" font-family="sans-serif" font-size="12" lengthAdjust="spacingAndGlyphs" textLength="12" x="607" y="1989.4775">冗</text><text fill="#000000" font-family="sans-serif" font-size="12" lengthAdjust="spacingAndGlyphs" textLength="12" x="607" y="2003.4463">余</text><line style="stroke: #A80036; stroke-width: 1.5;" x1="553" x2="613" y1="2036.2764" y2="2036.2764"/><rect fill="#FEFECE" filter="url(#f1n3pl71gi63nl)" height="33.9688" rx="12.5" ry="12.5" style="stroke: #A80036; stroke-width: 1.5;" width="68" x="549" y="2072.7764"/><text fill="#000000" font-family="sans-serif" font-size="12" lengthAdjust="spacingAndGlyphs" textLength="48" x="559" y="2093.915">监控数据</text><ellipse cx="583" cy="2151.7451" fill="none" filter="url(#f1n3pl71gi63nl)" rx="10" ry="10" style="stroke: #000000; stroke-width: 1.0;"/><ellipse cx="583.5" cy="2152.2451" fill="#000000" filter="url(#f1n3pl71gi63nl)" rx="6" ry="6" style="stroke: none; stroke-width: 1.0;"/><line style="stroke: #000000; stroke-width: 2.0;" x1="638" x2="638" y1="12.7451" y2="2161.7451"/><line style="stroke: #A80036; stroke-width: 1.5;" x1="78" x2="78" y1="158.9639" y2="193.9639"/><polygon fill="#A80036" points="74,183.9639,78,193.9639,82,183.9639,78,187.9639" style="stroke: #A80036; stroke-width: 1.0;"/><line style="stroke: #A80036; stroke-width: 1.5;" x1="78" x2="78" y1="227.9326" y2="262.9326"/><polygon fill="#A80036" points="74,252.9326,78,262.9326,82,252.9326,78,256.9326" style="stroke: #A80036; stroke-width: 1.0;"/><line style="stroke: #A80036; stroke-width: 1.5;" x1="78" x2="78" y1="53.6982" y2="124.9951"/><polygon fill="#A80036" points="74,114.9951,78,124.9951,82,114.9951,78,118.9951" style="stroke: #A80036; stroke-width: 1.0;"/><line style="stroke: #A80036; stroke-width: 1.5;" x1="78" x2="78" y1="454.8389" y2="489.8389"/><polygon fill="#A80036" points="74,479.8389,78,489.8389,82,479.8389,78,483.8389" style="stroke: #A80036; stroke-width: 1.0;"/><line style="stroke: #A80036; stroke-width: 1.5;" x1="214" x2="214" y1="730.7139" y2="765.7139"/><polygon fill="#A80036" points="210,755.7139,214,765.7139,218,755.7139,214,759.7139" style="stroke: #A80036; stroke-width: 1.0;"/><line style="stroke: #A80036; stroke-width: 1.5;" x1="214" x2="214" y1="1183.8545" y2="1218.8545"/><polygon fill="#A80036" points="210,1208.8545,214,1218.8545,218,1208.8545,214,1212.8545" style="stroke: #A80036; stroke-width: 1.0;"/><line style="stroke: #A80036; stroke-width: 1.5;" x1="214" x2="214" y1="1252.8232" y2="1287.8232"/><polygon fill="#A80036" points="210,1277.8232,214,1287.8232,218,1277.8232,214,1281.8232" style="stroke: #A80036; stroke-width: 1.0;"/><line style="stroke: #A80036; stroke-width: 1.5;" x1="214" x2="214" y1="1321.792" y2="1356.792"/><polygon fill="#A80036" points="210,1346.792,214,1356.792,218,1346.792,214,1350.792" style="stroke: #A80036; stroke-width: 1.0;"/><line style="stroke: #A80036; stroke-width: 1.5;" x1="214" x2="214" y1="1065.5889" y2="1149.8857"/><polygon fill="#A80036" points="210,1139.8857,214,1149.8857,218,1139.8857,214,1143.8857" style="stroke: #A80036; stroke-width: 1.0;"/><line style="stroke: #A80036; stroke-width: 1.5;" x1="446" x2="446" y1="1516.0264" y2="1551.0264"/><polygon fill="#A80036" points="442,1541.0264,446,1551.0264,450,1541.0264,446,1545.0264" style="stroke: #A80036; stroke-width: 1.0;"/><line style="stroke: #A80036; stroke-width: 1.5;" x1="485.5" x2="517" y1="1664.9951" y2="1664.9951"/><polygon fill="#A80036" points="513,1369.292,517,1359.292,521,1369.292,517,1365.292" style="stroke: #A80036; stroke-width: 1.5;"/><line style="stroke: #A80036; stroke-width: 1.5;" x1="517" x2="517" y1="1053.5889" y2="1664.9951"/><line style="stroke: #A80036; stroke-width: 1.5;" x1="517" x2="226" y1="1053.5889" y2="1053.5889"/><polygon fill="#A80036" points="236,1049.5889,226,1053.5889,236,1057.5889,232,1053.5889" style="stroke: #A80036; stroke-width: 1.0;"/><line style="stroke: #A80036; stroke-width: 1.5;" x1="446" x2="446" y1="1584.9951" y2="1652.9951"/><polygon fill="#A80036" points="442,1642.9951,446,1652.9951,450,1642.9951,446,1646.9951" style="stroke: #A80036; stroke-width: 1.0;"/><line style="stroke: #A80036; stroke-width: 1.5;" x1="446" x2="446" y1="1814.9326" y2="1849.9326"/><polygon fill="#A80036" points="442,1839.9326,446,1849.9326,450,1839.9326,446,1843.9326" style="stroke: #A80036; stroke-width: 1.0;"/><line style="stroke: #A80036; stroke-width: 1.5;" x1="553" x2="553" y1="1920.4014" y2="1940.4014"/><polygon fill="#A80036" points="549,1930.4014,553,1940.4014,557,1930.4014,553,1934.4014" style="stroke: #A80036; stroke-width: 1.0;"/><line style="stroke: #A80036; stroke-width: 1.5;" x1="613" x2="613" y1="1920.4014" y2="1940.4014"/><polygon fill="#A80036" points="609,1930.4014,613,1940.4014,617,1930.4014,613,1934.4014" style="stroke: #A80036; stroke-width: 1.0;"/><line style="stroke: #A80036; stroke-width: 1.5;" x1="553" x2="553" y1="2016.2764" y2="2036.2764"/><polygon fill="#A80036" points="549,2026.2764,553,2036.2764,557,2026.2764,553,2030.2764" style="stroke: #A80036; stroke-width: 1.0;"/><line style="stroke: #A80036; stroke-width: 1.5;" x1="613" x2="613" y1="2016.2764" y2="2036.2764"/><polygon fill="#A80036" points="609,2026.2764,613,2036.2764,617,2026.2764,613,2030.2764" style="stroke: #A80036; stroke-width: 1.0;"/><line style="stroke: #A80036; stroke-width: 1.5;" x1="583" x2="583" y1="2037.7764" y2="2072.7764"/><polygon fill="#A80036" points="579,2062.7764,583,2072.7764,587,2062.7764,583,2066.7764" style="stroke: #A80036; stroke-width: 1.0;"/><line style="stroke: #A80036; stroke-width: 1.5;" x1="583" x2="583" y1="2106.7451" y2="2141.7451"/><polygon fill="#A80036" points="579,2131.7451,583,2141.7451,587,2131.7451,583,2135.7451" style="stroke: #A80036; stroke-width: 1.0;"/><line style="stroke: #A80036; stroke-width: 1.5;" x1="78" x2="78" y1="296.9014" y2="324.4014"/><line style="stroke: #A80036; stroke-width: 1.5;" x1="78" x2="214" y1="324.4014" y2="324.4014"/><line style="stroke: #A80036; stroke-width: 1.5;" x1="214" x2="214" y1="324.4014" y2="351.9014"/><polygon fill="#A80036" points="210,341.9014,214,351.9014,218,341.9014,214,345.9014" style="stroke: #A80036; stroke-width: 1.0;"/><line style="stroke: #A80036; stroke-width: 1.5;" x1="214" x2="214" y1="385.8701" y2="403.3701"/><line style="stroke: #A80036; stroke-width: 1.5;" x1="214" x2="78" y1="403.3701" y2="403.3701"/><line style="stroke: #A80036; stroke-width: 1.5;" x1="78" x2="78" y1="403.3701" y2="420.8701"/><polygon fill="#A80036" points="74,410.8701,78,420.8701,82,410.8701,78,414.8701" style="stroke: #A80036; stroke-width: 1.0;"/><line style="stroke: #A80036; stroke-width: 1.5;" x1="78" x2="78" y1="523.8076" y2="541.3076"/><line style="stroke: #A80036; stroke-width: 1.5;" x1="78" x2="214" y1="541.3076" y2="541.3076"/><line style="stroke: #A80036; stroke-width: 1.5;" x1="214" x2="214" y1="541.3076" y2="558.8076"/><polygon fill="#A80036" points="210,548.8076,214,558.8076,218,548.8076,214,552.8076" style="stroke: #A80036; stroke-width: 1.0;"/><line style="stroke: #A80036; stroke-width: 1.5;" x1="214" x2="214" y1="592.7764" y2="610.2764"/><line style="stroke: #A80036; stroke-width: 1.5;" x1="214" x2="334.5" y1="610.2764" y2="610.2764"/><line style="stroke: #A80036; stroke-width: 1.5;" x1="334.5" x2="334.5" y1="610.2764" y2="627.7764"/><polygon fill="#A80036" points="330.5,617.7764,334.5,627.7764,338.5,617.7764,334.5,621.7764" style="stroke: #A80036; stroke-width: 1.0;"/><line style="stroke: #A80036; stroke-width: 1.5;" x1="334.5" x2="334.5" y1="661.7451" y2="679.2451"/><line style="stroke: #A80036; stroke-width: 1.5;" x1="334.5" x2="214" y1="679.2451" y2="679.2451"/><line style="stroke: #A80036; stroke-width: 1.5;" x1="214" x2="214" y1="679.2451" y2="696.7451"/><polygon fill="#A80036" points="210,686.7451,214,696.7451,218,686.7451,214,690.7451" style="stroke: #A80036; stroke-width: 1.0;"/><line style="stroke: #A80036; stroke-width: 1.5;" x1="214" x2="214" y1="799.6826" y2="817.1826"/><line style="stroke: #A80036; stroke-width: 1.5;" x1="214" x2="78" y1="817.1826" y2="817.1826"/><line style="stroke: #A80036; stroke-width: 1.5;" x1="78" x2="78" y1="817.1826" y2="834.6826"/><polygon fill="#A80036" points="74,824.6826,78,834.6826,82,824.6826,78,828.6826" style="stroke: #A80036; stroke-width: 1.0;"/><line style="stroke: #A80036; stroke-width: 1.5;" x1="78" x2="78" y1="868.6514" y2="886.1514"/><line style="stroke: #A80036; stroke-width: 1.5;" x1="78" x2="214" y1="886.1514" y2="886.1514"/><line style="stroke: #A80036; stroke-width: 1.5;" x1="214" x2="214" y1="886.1514" y2="903.6514"/><polygon fill="#A80036" points="210,893.6514,214,903.6514,218,893.6514,214,897.6514" style="stroke: #A80036; stroke-width: 1.0;"/><line style="stroke: #A80036; stroke-width: 1.5;" x1="214" x2="214" y1="937.6201" y2="955.1201"/><line style="stroke: #A80036; stroke-width: 1.5;" x1="214" x2="78" y1="955.1201" y2="955.1201"/><line style="stroke: #A80036; stroke-width: 1.5;" x1="78" x2="78" y1="955.1201" y2="972.6201"/><polygon fill="#A80036" points="74,962.6201,78,972.6201,82,962.6201,78,966.6201" style="stroke: #A80036; stroke-width: 1.0;"/><line style="stroke: #A80036; stroke-width: 1.5;" x1="214" x2="214" y1="1390.7607" y2="1436.4092"/><line style="stroke: #A80036; stroke-width: 1.5;" x1="214" x2="446" y1="1436.4092" y2="1436.4092"/><line style="stroke: #A80036; stroke-width: 1.5;" x1="446" x2="446" y1="1436.4092" y2="1482.0576"/><polygon fill="#A80036" points="442,1472.0576,446,1482.0576,450,1472.0576,446,1476.0576" style="stroke: #A80036; stroke-width: 1.0;"/><line style="stroke: #A80036; stroke-width: 1.5;" x1="78" x2="78" y1="1006.5889" y2="1024.0889"/><line style="stroke: #A80036; stroke-width: 1.5;" x1="78" x2="214" y1="1024.0889" y2="1024.0889"/><line style="stroke: #A80036; stroke-width: 1.5;" x1="214" x2="214" y1="1024.0889" y2="1041.5889"/><polygon fill="#A80036" points="210,1031.5889,214,1041.5889,218,1031.5889,214,1035.5889" style="stroke: #A80036; stroke-width: 1.0;"/><line style="stroke: #A80036; stroke-width: 1.5;" x1="446" x2="446" y1="1676.9951" y2="1694.4951"/><line style="stroke: #A80036; stroke-width: 1.5;" x1="446" x2="214" y1="1694.4951" y2="1694.4951"/><line style="stroke: #A80036; stroke-width: 1.5;" x1="214" x2="214" y1="1694.4951" y2="1711.9951"/><polygon fill="#A80036" points="210,1701.9951,214,1711.9951,218,1701.9951,214,1705.9951" style="stroke: #A80036; stroke-width: 1.0;"/><line style="stroke: #A80036; stroke-width: 1.5;" x1="214" x2="214" y1="1745.9639" y2="1763.4639"/><line style="stroke: #A80036; stroke-width: 1.5;" x1="214" x2="446" y1="1763.4639" y2="1763.4639"/><line style="stroke: #A80036; stroke-width: 1.5;" x1="446" x2="446" y1="1763.4639" y2="1780.9639"/><polygon fill="#A80036" points="442,1770.9639,446,1780.9639,450,1770.9639,446,1774.9639" style="stroke: #A80036; stroke-width: 1.0;"/><line style="stroke: #A80036; stroke-width: 1.5;" x1="446" x2="446" y1="1883.9014" y2="1901.4014"/><line style="stroke: #A80036; stroke-width: 1.5;" x1="446" x2="583" y1="1901.4014" y2="1901.4014"/><line style="stroke: #A80036; stroke-width: 1.5;" x1="583" x2="583" y1="1901.4014" y2="1918.9014"/><polygon fill="#A80036" points="579,1908.9014,583,1918.9014,587,1908.9014,583,1912.9014" style="stroke: #A80036; stroke-width: 1.0;"/><!--
@startuml
|产品|
start
partition 收集需求 {
  :市场调研;
  :产品立项;
  #red:撰写需求文档;
}
|#fed|研发|
:需求评审;

|产品|
:需求定稿;
#red:出原型;

|研发|
:原型评审;

|设计|
#red:出 UE/UI 图;

|研发|
:UI/UE 评审;
#red:概要设计;

|产品|
:初步排期;

|研发|
#red:详细设计;

|产品|
:详细迭代、里程碑;

|研发|
repeat
partition Coding {
  #red:编码实现;
  :单元测试;
  :代码覆盖率;
  :Code Review;
}
|测试|
partition Testing {
  #red:功能测试;
  :自动化测试;
}
repeatwhile (测试不通过)

|研发|
:部署项目;

|#fed|测试|
:全部功能测试;
:压力测试;

|上线|
split
:负\n载\n均\n衡;
split again
:灾\n难\n冗\n余;
end split
:监控数据;

stop
@enduml

PlantUML version 1.2018.08(Sun Jun 24 20:31:00 CST 2018)
(GPL source distribution)
Java Runtime: OpenJDK Runtime Environment
JVM: OpenJDK 64-Bit Server VM
Java Version: 1.8.0_222-b05
Operating System: Linux
OS Version: 5.2.14-arch2-1-ARCH
Default Encoding: UTF-8
Language: en
Country: US
--></g></svg>